HIERARCHY
ROOT SpineBase
{
  OFFSET 0.000000 0.000000 0.000000
  CHANNELS 6 Xposition Yposition Zposition Zrotation Xrotation Yrotation
  JOINT SpineMid
  {
    OFFSET 0.000000 28.936504 0.000000
    CHANNELS 3 Zrotation Xrotation Yrotation
    JOINT SpineShoulder
    {
      OFFSET -0.023893 21.507196 -0.701783
      CHANNELS 3 Zrotation Xrotation Yrotation
      JOINT Neck
      {
        OFFSET -0.022001 7.121927 -0.539822
        CHANNELS 3 Zrotation Xrotation Yrotation
        JOINT Head
        {
          OFFSET -2.890373 12.949321 0.531762
          CHANNELS 3 Zrotation Xrotation Yrotation
          End Site
          {
            OFFSET 0 0 0
          }
        }
      }
      JOINT ShoulderLeft
      {
        OFFSET -13.906508 -3.170190 7.800383
        CHANNELS 3 Zrotation Xrotation Yrotation
        JOINT ElbowLeft
        {
          OFFSET -1.734814 -26.117861 1.869546
          CHANNELS 3 Zrotation Xrotation Yrotation
          JOINT WristLeft
          {
            OFFSET 0.343138 -21.240791 -2.355999
            CHANNELS 3 Zrotation Xrotation Yrotation
            JOINT HandLeft
            {
              OFFSET 0.125493 -5.922893 -1.376427
              CHANNELS 3 Zrotation Xrotation Yrotation
              JOINT HandTipLeft
              {
                OFFSET 0.561407 -6.043098 0.056676
                CHANNELS 3 Zrotation Xrotation Yrotation
                End Site
                {
                  OFFSET 0 0 0
                }
              }
              JOINT ThumbLeft
              {
                OFFSET -1.893609 -2.316868 -2.196974
                CHANNELS 3 Zrotation Xrotation Yrotation
                End Site
                {
                  OFFSET 0 0 0
                }
              }
            }
          }
        }
      }
      JOINT ShoulderRight
      {
        OFFSET 10.984283 -3.845039 -11.488986
        CHANNELS 3 Zrotation Xrotation Yrotation
        JOINT ElbowRight
        {
          OFFSET 5.106562 -23.546907 -2.726118
          CHANNELS 3 Zrotation Xrotation Yrotation
          JOINT WristRight
          {
            OFFSET -0.395116 -20.172653 -4.635331
            CHANNELS 3 Zrotation Xrotation Yrotation
            JOINT HandRight
            {
              OFFSET -1.835355 -5.758150 -1.039104
              CHANNELS 3 Zrotation Xrotation Yrotation
              JOINT HandTipRight
              {
                OFFSET 0.164184 -6.905053 0.306035
                CHANNELS 3 Zrotation Xrotation Yrotation
                End Site
                {
                  OFFSET 0 0 0
                }
              }
              JOINT ThumbRight
              {
                OFFSET 2.024087 -0.489171 -2.684694
                CHANNELS 3 Zrotation Xrotation Yrotation
                End Site
                {
                  OFFSET 0 0 0
                }
              }
            }
          }
        }
      }
    }
  }
  JOINT HipLeft
  {
    OFFSET -5.124237 0.608975 -0.029997
    CHANNELS 3 Zrotation Xrotation Yrotation
    JOINT KneeLeft
    {
      OFFSET 6.536150 -27.534266 6.926396
      CHANNELS 3 Zrotation Xrotation Yrotation
      JOINT AnkleLeft
      {
        OFFSET 7.303026 -31.478379 7.339350
        CHANNELS 3 Zrotation Xrotation Yrotation
        JOINT FootLeft
        {
          OFFSET -4.745922 -2.865288 -9.431822
          CHANNELS 3 Zrotation Xrotation Yrotation
          End Site
          {
            OFFSET 0 0 0
          }
        }
      }
    }
  }
  JOINT HipRight
  {
    OFFSET 4.898069 1.054739 -6.671880
    CHANNELS 3 Zrotation Xrotation Yrotation
    JOINT KneeRight
    {
      OFFSET 9.910066 -31.563003 6.323086
      CHANNELS 3 Zrotation Xrotation Yrotation
      JOINT AnkleRight
      {
        OFFSET 6.280494 -29.456995 3.973248
        CHANNELS 3 Zrotation Xrotation Yrotation
        JOINT FootRight
        {
          OFFSET -4.749731 -3.830972 -4.013071
          CHANNELS 3 Zrotation Xrotation Yrotation
          End Site
          {
            OFFSET 0 0 0
          }
        }
      }
    }
  }
}
MOTION
Frames: 16
Frame Time: 0.033333
10.790022 119.543978 342.094718 -0.000000 0.000000 33.532836 -0.000000 0.000000 -33.532836 -0.000000 0.000000 0.000000 -0.000000 0.000000 0.000000 0.000000 0.000000 0.000000 -0.000000 0.000000 0.000000 -0.000000 0.000000 0.000000 -0.000000 0.000000 0.000000 -0.000000 0.000000 0.000000 0.000000 0.000000 0.000000 0.000000 0.000000 0.000000 -0.000000 0.000000 0.000000 -0.000000 0.000000 0.000000 -0.000000 0.000000 0.000000 -0.000000 0.000000 0.000000 0.000000 0.000000 0.000000 0.000000 0.000000 0.000000 -0.000000 0.000000 -33.532836 -0.000000 0.000000 0.000000 -0.000000 0.000000 0.000000 0.000000 0.000000 0.000000 -0.000000 0.000000 -33.532836 -0.000000 0.000000 0.000000 -0.000000 0.000000 0.000000 0.000000 0.000000 0.000000
10.762448 119.534036 342.127136 -0.032948 -0.011362 33.389602 0.033763 -0.008646 -33.389603 -0.000000 0.000000 0.000000 -0.000000 0.000000 0.000000 0.000000 0.000000 0.000000 -0.000000 0.000000 0.000000 -0.000000 0.000000 0.000000 0.675049 -0.845529 -0.170082 -1.279788 2.580525 0.354118 0.000000 0.000000 0.000000 0.000000 0.000000 0.000000 -0.000000 0.000000 0.000000 -0.000000 0.000000 0.000000 1.910781 -2.469407 0.488050 -2.062108 3.359743 -0.384181 0.000000 0.000000 0.000000 0.000000 0.000000 0.000000 0.033763 -0.008646 -33.389603 -0.000000 0.000000 0.000000 -0.000000 0.000000 0.000000 0.000000 0.000000 0.000000 0.033763 -0.008646 -33.389603 -0.000000 0.000000 0.000000 1.916929 -4.657028 4.105160 0.000000 0.000000 0.000000
10.734866 119.524716 342.156199 -0.054488 -0.026725 33.264549 0.060219 -0.007541 -33.264558 -0.000000 0.000000 0.000000 -0.000000 0.000000 0.000000 0.000000 0.000000 0.000000 -0.000000 0.000000 0.000000 -0.000000 0.000000 0.000000 1.159149 -1.558304 -0.287486 -2.498420 4.504881 0.652587 0.000000 0.000000 0.000000 0.000000 0.000000 0.000000 -0.000000 0.000000 0.000000 -0.908047 0.818989 0.198749 4.296797 -5.141032 0.765713 -3.687014 6.070812 -0.591785 0.000000 0.000000 0.000000 0.000000 0.000000 0.000000 0.060219 -0.007541 -33.264558 -0.000000 0.000000 0.000000 -0.000000 0.000000 0.000000 0.000000 0.000000 0.000000 0.060219 -0.007541 -33.264558 0.443739 -0.839212 -0.115618 3.664025 -7.967218 8.012619 0.000000 0.000000 0.000000
10.707275 119.516016 342.181908 -0.064637 -0.046089 33.157996 0.079320 0.003231 -33.158024 -0.000000 0.000000 0.000000 -0.000000 0.000000 0.000000 0.000000 0.000000 0.000000 -0.000000 0.000000 0.000000 1.065425 0.010670 -0.118087 0.406457 -2.161653 -0.242303 -3.655993 5.856115 0.895032 0.000000 0.000000 0.000000 0.000000 0.000000 0.000000 -0.000000 0.000000 0.000000 -1.213417 1.166548 0.267655 5.728995 -6.815279 1.075270 -4.957612 8.199283 -0.683695 0.000000 0.000000 0.000000 0.000000 0.000000 0.000000 0.079320 0.003231 -33.158024 -0.000000 0.000000 0.000000 -0.000000 0.000000 0.000000 0.000000 0.000000 0.000000 0.827835 0.402416 -32.845350 0.241763 -1.795286 -0.438154 5.785733 -11.352550 11.490614 0.000000 0.000000 0.000000
10.679676 119.507937 342.204263 -0.063407 -0.069455 33.070217 0.091034 0.023604 -33.070274 -0.000000 0.000000 0.000000 -0.000000 0.000000 0.000000 0.000000 0.000000 0.000000 -0.000000 0.000000 0.000000 1.326776 0.082645 -0.146753 0.289683 -2.718424 -0.247551 -4.753165 6.696887 1.076951 0.000000 0.000000 0.000000 0.000000 0.000000 0.000000 -0.000000 0.000000 0.000000 -1.409774 1.466552 0.312282 6.745333 -7.996667 1.310043 -5.928940 9.789369 -0.699225 0.000000 0.000000 0.000000 0.000000 0.000000 0.000000 0.091034 0.023604 -33.070274 -0.000000 0.000000 0.000000 -0.000000 0.000000 0.000000 0.000000 0.000000 0.000000 0.856126 0.472178 -32.744970 0.470075 -1.931500 -0.434112 7.961524 -14.313515 14.561588 0.000000 0.000000 0.000000
10.652069 119.500480 342.223263 -0.050803 -0.096825 33.001447 0.095343 0.053533 -33.001535 -0.000000 0.000000 0.000000 -0.000000 0.000000 0.000000 0.000000 0.000000 0.000000 -0.000000 0.000000 0.000000 1.533563 0.189726 -0.169517 0.065968 -3.209678 -0.223940 -5.790337 7.073326 1.190527 0.000000 0.000000 0.000000 0.000000 0.000000 0.000000 -0.000000 0.000000 0.000000 -1.491993 1.715070 0.330371 7.375157 -8.734849 1.460823 -6.635994 10.867862 -0.664009 0.000000 0.000000 0.000000 0.000000 0.000000 0.000000 0.095343 0.053533 -33.001535 -0.000000 0.000000 0.000000 -0.000000 0.000000 0.000000 0.000000 0.000000 0.000000 0.751032 0.503217 -32.712953 0.785751 -1.836469 -0.354784 10.117257 -16.885931 17.204266 0.000000 0.000000 0.000000
10.635438 119.482218 342.237261 -0.005716 -0.130440 32.882072 0.075618 0.106439 -32.882149 -0.000000 0.000000 0.000000 -0.000000 0.000000 0.000000 0.000000 0.000000 0.000000 0.364100 0.771487 -0.027653 1.373024 -0.632650 -0.146313 1.273154 -1.514557 -0.497504 -6.801592 4.750620 1.253668 0.000000 0.000000 0.000000 0.000000 0.000000 0.000000 -0.000000 0.000000 0.000000 -1.172155 1.631621 0.253202 6.190924 -7.797486 1.279260 -7.623908 10.067466 -0.462815 0.000000 0.000000 0.000000 0.000000 0.000000 0.000000 0.075618 0.106439 -32.882149 -0.000000 0.000000 0.000000 -0.783627 2.746464 -1.789969 0.000000 0.000000 0.000000 0.075618 0.106439 -32.882149 1.412183 -0.899499 0.009754 8.824520 -13.613172 11.189222 0.000000 0.000000 0.000000
10.600561 119.473020 342.258946 0.026443 -0.175084 32.851997 0.072763 0.161428 -32.852059 -0.000000 0.000000 0.000000 -0.000000 0.000000 0.000000 0.000000 0.000000 0.000000 0.455104 1.067568 -0.042615 1.462935 -0.676469 -0.142941 0.476961 -2.949042 -0.341338 -9.930855 3.489980 1.089009 0.000000 0.000000 0.000000 0.000000 0.000000 0.000000 -0.000000 0.000000 0.000000 -1.043461 1.795908 0.220120 5.880716 -8.248581 1.452551 -6.568798 10.553136 -0.658257 0.000000 0.000000 0.000000 0.000000 0.000000 0.000000 0.072763 0.161428 -32.852059 -0.000000 0.000000 0.000000 -0.000000 0.000000 0.000000 0.000000 0.000000 0.000000 0.072763 0.161428 -32.852059 1.838910 -0.592475 0.130707 10.929716 -16.250143 12.989783 0.000000 0.000000 0.000000
10.563696 119.471231 342.282337 0.065659 -0.202680 32.905059 0.054980 0.205833 -32.905041 -0.000000 0.000000 0.000000 -0.000000 0.000000 0.000000 0.000000 0.000000 0.000000 -0.000000 0.000000 0.000000 2.009661 1.091823 -0.224143 -1.155463 -5.112433 -0.049565 -11.615873 5.236696 1.207780 0.000000 0.000000 0.000000 0.000000 0.000000 0.000000 -0.000000 0.000000 0.000000 -0.907382 1.854432 0.186144 5.811091 -8.053181 1.389284 -5.337527 9.576148 -0.730268 0.000000 0.000000 0.000000 0.000000 0.000000 0.000000 0.054980 0.205833 -32.905041 -0.000000 0.000000 0.000000 1.421504 -3.817966 1.947683 0.000000 0.000000 0.000000 0.054980 0.205833 -32.905041 2.227954 -0.121928 0.275743 13.881502 -20.020413 16.691424 0.000000 0.000000 0.000000
10.525770 119.477883 342.293940 0.097105 -0.236276 32.927580 0.046928 0.251104 -32.927483 -0.000000 0.000000 0.000000 -0.000000 0.000000 0.000000 0.000000 0.000000 0.000000 -0.000000 0.000000 0.000000 2.069689 1.303164 -0.231719 -4.978904 -6.983609 0.538308 -9.135498 7.857707 0.811550 0.000000 0.000000 0.000000 0.000000 0.000000 0.000000 -0.000000 0.000000 0.000000 -0.728096 2.147773 0.138269 5.961298 -8.330160 1.428950 -4.436120 10.026605 -0.759136 0.000000 0.000000 0.000000 0.000000 0.000000 0.000000 0.046928 0.251104 -32.927483 -0.000000 0.000000 0.000000 2.399956 -6.313096 3.441865 0.000000 0.000000 0.000000 -0.997984 0.422101 -33.249560 3.386223 0.395509 0.621786 21.799541 -27.584072 30.238405 0.000000 0.000000 0.000000
10.481129 119.496331 342.296273 0.113828 -0.273634 32.963531 0.053382 0.291518 -32.963395 -0.000000 0.000000 0.000000 -0.000000 0.000000 0.000000 0.000000 0.000000 0.000000 -0.312835 -0.807769 0.029037 2.058846 1.838969 -0.250338 -10.304308 -7.719894 1.377371 -4.853944 9.003981 -0.445041 0.000000 0.000000 0.000000 0.000000 0.000000 0.000000 0.923495 0.011673 -0.104298 -1.505104 2.303008 0.202539 6.652068 -7.993844 1.217391 -4.614861 9.260053 -0.480409 0.000000 0.000000 0.000000 0.000000 0.000000 0.000000 0.053382 0.291518 -32.963395 -0.000000 0.000000 0.000000 3.077955 -7.958468 4.516629 0.000000 0.000000 0.000000 -1.202506 0.709942 -33.314475 3.571722 0.168198 0.616305 21.665024 -27.763203 31.633909 0.000000 0.000000 0.000000
10.440715 119.527960 342.272549 0.137892 -0.256442 32.998701 0.024015 0.290172 -32.998453 -0.000000 0.000000 0.000000 -0.000000 0.000000 0.000000 0.000000 0.000000 0.000000 -0.370268 -1.282646 0.054496 1.145378 2.055101 -0.158453 -16.792834 -8.297905 2.419028 4.180274 11.063877 -2.455036 0.000000 0.000000 0.000000 0.000000 0.000000 0.000000 1.142554 -0.171803 -0.167495 -1.430912 2.900072 0.189232 7.404850 -7.921557 1.060393 -5.405475 8.224704 -0.127486 0.000000 0.000000 0.000000 0.000000 0.000000 0.000000 0.024015 0.290172 -32.998453 -0.647173 0.487416 -0.035140 3.966980 -9.022995 5.051695 0.000000 0.000000 0.000000 -1.432146 0.705415 -33.416761 3.276840 0.339324 0.631220 12.382692 -21.123307 21.404794 0.000000 0.000000 0.000000
10.402549 119.577852 342.200552 0.190852 -0.240963 33.074973 -0.028424 0.306071 -33.074496 -0.000000 0.000000 0.000000 0.866238 -0.213859 -0.081559 0.000000 0.000000 0.000000 -0.573822 -1.616989 0.058161 0.575691 1.616325 -0.074379 -24.023514 -6.166044 4.293225 16.039039 9.679610 -5.070892 0.000000 0.000000 0.000000 0.000000 0.000000 0.000000 1.367671 -0.255397 -0.210197 -1.220130 3.622560 0.108841 7.934759 -6.171693 0.215414 -5.515360 7.988100 0.751439 0.000000 0.000000 0.000000 0.000000 0.000000 0.000000 -0.028424 0.306071 -33.074496 -0.785222 0.292908 -0.113367 3.853366 -8.300177 4.920481 0.000000 0.000000 0.000000 -0.237576 2.271739 -32.836984 2.411080 -3.756662 -0.474342 12.167930 -17.662336 19.235444 0.000000 0.000000 0.000000
10.395381 119.600171 342.091479 0.302365 -0.204094 33.130166 -0.141667 0.336169 -33.129212 -0.000000 0.000000 0.000000 1.181096 -0.096034 -0.068793 0.000000 0.000000 0.000000 -0.755109 -1.422846 0.031044 -1.978210 0.708218 0.293063 -27.633257 -4.865583 5.762714 22.250871 7.571389 -6.698692 0.000000 0.000000 0.000000 0.000000 0.000000 0.000000 1.607483 -0.415196 -0.269627 -0.960300 4.477294 0.022177 8.795100 -3.961929 -0.885226 -5.379220 9.031341 1.834182 0.000000 0.000000 0.000000 0.000000 0.000000 0.000000 -0.141667 0.336169 -33.129212 -0.000000 0.000000 0.000000 2.343388 -6.448349 3.980903 0.000000 0.000000 0.000000 0.164838 3.812355 -32.496480 2.752488 -6.682258 -1.103312 10.805472 -16.732197 21.641841 0.000000 0.000000 0.000000
10.427561 119.593581 341.925621 0.511317 -0.169467 33.184786 -0.335179 0.421687 -33.182796 0.801790 -0.319448 0.062008 0.302513 0.341415 -0.104177 0.000000 0.000000 0.000000 -1.826043 -0.997103 -0.049272 -4.094661 0.154115 0.590031 -31.390591 -5.927651 6.577675 27.084281 7.221820 -8.369048 0.000000 0.000000 0.000000 0.000000 0.000000 0.000000 1.192215 -0.178509 -0.397523 -0.800853 5.371940 -0.088237 10.081414 -0.205416 -2.767660 -5.854503 10.392175 3.489024 0.000000 0.000000 0.000000 0.000000 0.000000 0.000000 -1.283625 0.057668 -33.523744 0.589648 0.827273 0.340659 1.333856 -4.016557 2.670758 0.000000 0.000000 0.000000 0.466291 5.420271 -32.171860 3.079335 -9.416881 -1.685526 10.851013 -15.211284 20.866657 0.000000 0.000000 0.000000
10.496290 119.550920 341.719874 0.784047 -0.197846 33.219829 0.057875 -0.274066 -33.185708 0.134118 -0.033774 0.051542 -0.227977 0.454316 -0.116827 0.000000 0.000000 0.000000 -2.721628 -1.356070 -0.087974 -7.186134 0.462279 1.101847 -31.743044 -4.922791 7.404721 26.027366 4.049512 -9.336378 0.000000 0.000000 0.000000 0.000000 0.000000 0.000000 1.346693 -0.034486 -0.471374 -0.652308 6.069176 -0.238579 12.180038 5.164710 -5.611289 -7.178614 9.931089 5.706211 0.000000 0.000000 0.000000 0.000000 0.000000 0.000000 -2.444099 0.337095 -33.861831 1.431165 1.270939 0.645753 -0.648187 -0.412528 2.821086 0.000000 0.000000 0.000000 0.465131 7.792684 -31.815994 4.789235 -12.376741 -1.941037 16.797427 -20.948277 31.266844 0.000000 0.000000 0.000000
